<?xml version="1.0" encoding="UTF-8"?>
<svg version="1.1" xmlns="http://www.w3.org/2000/svg" width="300" height="300">
<path d="M0 0 C0.97462692 0.48621826 1.94925385 0.97243652 2.95341492 1.47338867 C6.16645238 3.07875376 9.37363527 4.69545956 12.58081055 6.3125 C14.8115433 7.43032815 17.0426016 8.54750685 19.27397156 9.6640625 C24.54198313 12.30237487 29.80623789 14.94806523 35.06886119 17.59710693 C40.46545148 20.3129362 45.86673855 23.01934007 51.26862812 25.72460938 C56.97827657 28.58440852 62.68592642 31.44818521 68.39331055 34.3125 C70.0366056 35.13669434 70.0366056 35.13669434 71.71309853 35.97753906 C74.79551423 37.52450724 77.87651128 39.07426096 80.95703125 40.625 C81.87908356 41.08737061 82.80113586 41.54974121 83.75112915 42.02612305 C84.58524826 42.44676025 85.41936737 42.86739746 86.27876282 43.30078125 C87.0074825 43.66727783 87.73620218 44.03377441 88.48700428 44.41137695 C90.1550293 45.3125 90.1550293 45.3125 91.1550293 46.3125 C91.25114348 47.9700762 91.27690684 49.63176986 91.27528381 51.29212952 C91.27734581 52.90970909 91.27734581 52.90970909 91.27944946 54.55996704 C91.27585419 55.7532663 91.27225891 56.94656555 91.26855469 58.17602539 C91.26870071 59.42462845 91.26884674 60.67323151 91.26899719 61.95967102 C91.26841821 65.39340994 91.26338884 68.82708938 91.25642323 72.26081777 C91.25018928 75.84562459 91.24958586 79.43043213 91.24839783 83.01524353 C91.24528464 89.80800045 91.23707141 96.60074135 91.22704834 103.39349121 C91.21588682 111.12492494 91.21037665 118.85635942 91.2053529 126.58779919 C91.19488879 142.49604208 91.17728958 158.40426898 91.1550293 174.3125 C73.56230613 183.63226802 55.83281375 192.66580288 38.04868603 201.61398602 C33.17861127 204.06443286 28.3120074 206.5213044 23.45263672 208.99291992 C18.69802974 211.41109395 13.93582512 213.81361687 9.1677494 216.20511818 C7.36406882 217.11307622 5.56314772 218.02653827 3.76512718 218.94565392 C1.26586883 220.22190587 -1.24265134 221.47778903 -3.75439453 222.72924805 C-4.48843506 223.10986389 -5.22247559 223.49047974 -5.97875977 223.88262939 C-10.36718071 226.03713329 -13.009985 226.89364381 -17.8449707 225.3125 C-21.19736693 223.88356199 -24.44031646 222.2726365 -27.68994141 220.625 C-28.66456833 220.13878174 -29.63919525 219.65256348 -30.64335632 219.15161133 C-33.85639378 217.54624624 -37.06357668 215.92954044 -40.27075195 214.3125 C-42.50148471 213.19467185 -44.73254301 212.07749315 -46.96391296 210.9609375 C-52.23192454 208.32262513 -57.49617929 205.67693477 -62.75880259 203.02789307 C-68.15539288 200.3120638 -73.55667995 197.60565993 -78.95856953 194.90039062 C-84.66821798 192.04059148 -90.37586783 189.17681479 -96.08325195 186.3125 C-97.17878199 185.76303711 -98.27431202 185.21357422 -99.40303993 184.64746094 C-102.48545563 183.10049276 -105.56645268 181.55073904 -108.64697266 180 C-109.56902496 179.53762939 -110.49107727 179.07525879 -111.44107056 178.59887695 C-112.27518967 178.17823975 -113.10930878 177.75760254 -113.96870422 177.32421875 C-114.69742391 176.95772217 -115.42614359 176.59122559 -116.17694569 176.21362305 C-117.8449707 175.3125 -117.8449707 175.3125 -118.8449707 174.3125 C-118.94108489 172.6549238 -118.96684825 170.99323014 -118.96522522 169.33287048 C-118.96728722 167.71529091 -118.96728722 167.71529091 -118.96939087 166.06503296 C-118.96579559 164.8717337 -118.96220032 163.67843445 -118.95849609 162.44897461 C-118.95864212 161.20037155 -118.95878815 159.95176849 -118.9589386 158.66532898 C-118.95835962 155.23159006 -118.95333025 151.79791062 -118.94636464 148.36418223 C-118.94013068 144.77937541 -118.93952727 141.19456787 -118.93833923 137.60975647 C-118.93522604 130.81699955 -118.92701282 124.02425865 -118.91698974 117.23150879 C-118.90582823 109.50007506 -118.90031806 101.76864058 -118.89529431 94.03720081 C-118.88483019 78.12895792 -118.86723099 62.22073102 -118.8449707 46.3125 C-101.25224753 36.99273198 -83.52275516 27.95919712 -65.73862743 19.01101398 C-60.86855267 16.56056714 -56.00194881 14.1036956 -51.14257812 11.63208008 C-46.38797115 9.21390605 -41.62576652 6.81138313 -36.85769081 4.41988182 C-35.05401023 3.51192378 -33.25308913 2.59846173 -31.45506859 1.67934608 C-28.95581024 0.40309413 -26.44729007 -0.85278903 -23.93554688 -2.10424805 C-23.20150635 -2.48486389 -22.46746582 -2.86547974 -21.71118164 -3.25762939 C-13.35537115 -7.35993098 -7.80067599 -3.95512674 0 0 Z " fill="#447139" transform="translate(163.844970703125,39.6875)"/>
<path d="M0 0 C0 42.24 0 84.48 0 128 C-21.84432739 139.49701442 -21.84432739 139.49701442 -28.83618164 142.99072266 C-30.06447441 143.607388 -30.06447441 143.607388 -31.31758118 144.23651123 C-33.9307639 145.54771963 -36.5453425 146.85611012 -39.16015625 148.1640625 C-41.01153782 149.09136538 -42.86289121 150.01872452 -44.71421814 150.94613647 C-48.54616577 152.86506833 -52.37890686 154.78240433 -56.2121582 156.69873047 C-61.13133631 159.15826802 -66.04770646 161.62336552 -70.96344852 164.08976173 C-74.76319005 165.99516804 -78.56472467 167.89697419 -82.36678886 169.79774094 C-84.18278682 170.70633034 -85.99813556 171.61621852 -87.81282234 172.52742386 C-90.32785358 173.78980499 -92.84533559 175.04715688 -95.36352539 176.30322266 C-96.48615784 176.86875351 -96.48615784 176.86875351 -97.63146973 177.44570923 C-102.77166115 180 -102.77166115 180 -105 180 C-105 137.76 -105 95.52 -105 52 C-79.2909375 39.13 -79.2909375 39.13 -53.0625 26 C-44.93185913 21.92785156 -44.93185913 21.92785156 -36.63696289 17.7734375 C-30.03991699 14.47265625 -30.03991699 14.47265625 -26.95579529 12.93017578 C-24.79213815 11.84757711 -22.6288784 10.76418401 -20.46592712 9.68017578 C-17.19834025 8.04274618 -13.92951927 6.40780584 -10.66040039 4.7734375 C-9.68968881 4.28628265 -8.71897722 3.79912781 -7.71885014 3.29721069 C-6.8442335 2.86059113 -5.96961687 2.42397156 -5.0684967 1.97412109 C-3.91948175 1.39892227 -3.91948175 1.39892227 -2.74725437 0.81210327 C-1 0 -1 0 0 0 Z " fill="#32522A" transform="translate(255,86)"/>
<path d="M0 0 C1.78507785 0.8867628 3.56578321 1.78236123 5.34292603 2.68492126 C6.80727585 3.4166581 6.80727585 3.4166581 8.3012085 4.16317749 C11.51899882 5.7734632 14.73097676 7.39500077 17.94302368 9.01670837 C20.17612311 10.13698919 22.40957742 11.25656286 24.64337158 12.37545776 C29.91604685 15.01864493 35.18510533 17.66892853 40.45245993 20.32270092 C47.04070709 23.64141013 53.63451022 26.94902406 60.22817993 30.25694275 C71.98395525 36.15626703 83.7347647 42.06541317 95.48208618 47.98155212 C95.48208618 48.64155212 95.48208618 49.30155212 95.48208618 49.98155212 C82.29636334 56.6678828 69.10148986 63.33584215 55.89551353 69.98208714 C49.76385845 73.06853405 43.63533043 76.16090653 37.51382446 79.2674408 C31.60781664 82.26459319 25.6935391 85.2449542 19.77391434 88.21514702 C17.51524263 89.3518818 15.25939817 90.49425208 13.00645065 91.64229012 C9.85374127 93.24762058 6.69163319 94.83273686 3.52651978 96.41343689 C2.5943161 96.89391983 1.66211243 97.37440277 0.70166016 97.8694458 C-2.83533515 99.61549809 -5.55789518 100.95621884 -9.52938843 101.0610199 C-13.98452892 99.45180466 -18.15822829 97.42166716 -22.37875366 95.27818298 C-23.35498688 94.79035843 -24.33122009 94.30253387 -25.33703613 93.79992676 C-28.55482645 92.18964105 -31.76680439 90.56810347 -34.97885132 88.94639587 C-37.21195075 87.82611506 -39.44540506 86.70654139 -41.67919922 85.58764648 C-46.95187448 82.94445931 -52.22093297 80.29417571 -57.48828757 77.64040333 C-64.07653473 74.32169412 -70.67033786 71.01408019 -77.26400757 67.7061615 C-89.01978289 61.80683722 -100.77059233 55.89769108 -112.51791382 49.98155212 C-112.51791382 49.32155212 -112.51791382 48.66155212 -112.51791382 47.98155212 C-99.33219098 41.29522145 -86.1373175 34.6272621 -72.93134117 27.98101711 C-66.79968609 24.89457019 -60.67115806 21.80219771 -54.5496521 18.69566345 C-48.64364427 15.69851106 -42.72936674 12.71815005 -36.80974197 9.74795723 C-34.55107027 8.61122245 -32.2952258 7.46885217 -30.04227829 6.32081413 C-26.8895689 4.71548367 -23.72746082 3.13036739 -20.56234741 1.54966736 C-19.63014374 1.06918442 -18.69794006 0.58870148 -17.73748779 0.09365845 C-10.67577776 -3.39238376 -7.14545867 -3.2950943 0 0 Z " fill="#69AE59" transform="translate(158.51791381835938,37.01844787597656)"/>
<path d="M0 0 C1.30517578 0.67869141 1.30517578 0.67869141 2.63671875 1.37109375 C3.51972656 1.82613281 4.40273437 2.28117187 5.3125 2.75 C5.97636719 3.09933594 6.64023438 3.44867188 7.32421875 3.80859375 C-0.44048713 9.80859375 -0.44048713 9.80859375 -4.67578125 9.80859375 C-4.67578125 10.46859375 -4.67578125 11.12859375 -4.67578125 11.80859375 C-3.4077063 12.19618866 -3.4077063 12.19618866 -2.11401367 12.59161377 C1.53497422 13.88319173 4.90835715 15.5035416 8.3359375 17.28027344 C9.34692001 17.79759285 9.34692001 17.79759285 10.37832642 18.32536316 C11.83267829 19.06965594 13.28618441 19.81560322 14.73892212 20.56304169 C17.83073782 22.15115972 20.93013277 23.72420415 24.02915955 25.29819107 C29.79067026 28.22462079 35.54893271 31.15701432 41.29394531 34.11572266 C45.2992641 36.17775216 49.31406405 38.22013553 53.33584595 40.24985504 C54.86411968 41.02573344 56.38873867 41.80885502 57.90951538 42.59932709 C60.03494009 43.70303569 62.17157073 44.78124442 64.3125 45.85449219 C64.93605377 46.1858165 65.55960754 46.51714081 66.20205688 46.85850525 C69.41676696 48.43621211 71.03238672 48.87232447 74.57495117 48.09869385 C77.40240687 46.81303999 77.40240687 46.81303999 80.32421875 45.12109375 C84.06575908 43.48416986 85.43825697 43.58946849 89.32421875 44.80859375 C92.40266335 46.35034351 95.37539047 48.03274383 98.32421875 49.80859375 C94.00207603 53.19199611 89.32275459 55.56908194 84.44921875 58.05859375 C83.56363281 58.53039062 82.67804688 59.0021875 81.765625 59.48828125 C80.90066406 59.92914063 80.03570312 60.37 79.14453125 60.82421875 C78.36352051 61.22930664 77.58250977 61.63439453 76.77783203 62.05175781 C70.23431012 64.0701576 64.153132 59.99488755 58.46337891 57.10522461 C57.48714569 56.61740005 56.51091248 56.1295755 55.50509644 55.62696838 C52.28730612 54.01668268 49.07532817 52.3951451 45.86328125 50.7734375 C43.63018182 49.65315669 41.39672751 48.53358302 39.16293335 47.41468811 C33.89025809 44.77150094 28.6211996 42.12121734 23.353845 39.46744496 C16.76559784 36.14873574 10.17179471 32.84112181 3.578125 29.53320312 C-8.17765032 23.63387884 -19.92845976 17.72473271 -31.67578125 11.80859375 C-31.67578125 11.14859375 -31.67578125 10.48859375 -31.67578125 9.80859375 C-27.79153593 7.76488863 -23.89176835 5.75276862 -19.98828125 3.74609375 C-18.88548828 3.16537109 -17.78269531 2.58464844 -16.64648438 1.98632812 C-15.57978516 1.44169922 -14.51308594 0.89707031 -13.4140625 0.3359375 C-12.43477783 -0.17203369 -11.45549316 -0.68000488 -10.4465332 -1.20336914 C-6.33251374 -2.67040912 -3.87778362 -1.72660439 0 0 Z " fill="#73C361" transform="translate(77.67578125,75.19140625)"/>
<path d="M0 0 C0 26.4 0 52.8 0 80 C-4.62 82.31 -9.24 84.62 -14 87 C-14.33 66.21 -14.66 45.42 -15 24 C-26.75976564 29.91947011 -26.75976564 29.91947011 -38.51513672 35.84765625 C-39.98649442 36.58625478 -41.45800113 37.32455657 -42.9296875 38.0625 C-43.69676025 38.45115234 -44.46383301 38.83980469 -45.25415039 39.24023438 C-50.7718564 42 -50.7718564 42 -53 42 C-53 36.72 -53 31.44 -53 26 C-46.23837002 22.60790811 -39.47590409 19.21749369 -32.7119379 15.83006287 C-29.57150559 14.25723264 -26.43145124 12.68365727 -23.29223633 11.10839844 C-19.68680822 9.29923404 -16.07978227 7.49327674 -12.47265625 5.6875 C-11.34038101 5.11878174 -10.20810577 4.55006348 -9.04151917 3.96411133 C-8.00051559 3.44357178 -6.95951202 2.92303223 -5.88696289 2.38671875 C-4.96540909 1.92483154 -4.04385529 1.46294434 -3.09437561 0.98706055 C-1 0 -1 0 0 0 Z " fill="#375C2E" transform="translate(255,86)"/>
<path d="M0 0 C3.96923571 1.32307857 7.24808061 2.50041622 10.90380859 4.33837891 C12.2845607 5.02886826 12.2845607 5.02886826 13.69320679 5.73330688 C14.66843292 6.22608124 15.64365906 6.71885559 16.6484375 7.2265625 C17.66096588 7.73424164 18.67349426 8.24192078 19.71670532 8.76498413 C22.93804008 10.38123185 26.15654232 12.00303193 29.375 13.625 C31.56361734 14.72432621 33.75241741 15.82328871 35.94140625 16.921875 C41.29675227 19.6096984 46.64822968 22.30501653 52 25 C52 40.84 52 56.68 52 73 C49.03 72.01 49.03 72.01 46 71 C44.1128125 70.443125 44.1128125 70.443125 42.1875 69.875 C40.3671875 68.859375 40.3671875 68.859375 39 67 C38.82067723 64.32751233 38.76342813 61.79223549 38.8125 59.125 C38.8562319 56.1664704 38.60081724 53.96767305 38 51 C34.15185456 47.61762432 30.95660747 46.66959409 26 45 C26 39.39 26 33.78 26 28 C24.02 27.34 22.04 26.68 20 26 C18.33014956 25.24038811 16.67562134 24.44609393 15.0390625 23.6171875 C14.15605469 23.17246094 13.27304688 22.72773438 12.36328125 22.26953125 C11.45964844 21.80933594 10.55601563 21.34914062 9.625 20.875 C8.69816406 20.40707031 7.77132812 19.93914062 6.81640625 19.45703125 C4.54243112 18.30832216 2.27096212 17.15465429 0 16 C0 10.72 0 5.44 0 0 Z " fill="#4B7E3F" transform="translate(98,113)"/>
<path d="M0 0 C0 5.28 0 10.56 0 16 C-3.04125976 17.60494203 -6.08299163 19.20897799 -9.125 20.8125 C-9.9809375 21.26431641 -10.836875 21.71613281 -11.71875 22.18164062 C-12.55664062 22.62314453 -13.39453125 23.06464844 -14.2578125 23.51953125 C-15.0223877 23.92276611 -15.78696289 24.32600098 -16.57470703 24.74145508 C-19.36782295 26.19087249 -22.18542261 27.5927113 -25 29 C-25.33 44.84 -25.66 60.68 -26 77 C-37 83 -37 83 -39 83 C-39 61.88 -39 40.76 -39 19 C-32.750625 15.865 -26.50125 12.73 -20.0625 9.5 C-18.08773682 8.50806641 -16.11297363 7.51613281 -14.07836914 6.49414062 C-12.52237753 5.71468531 -10.96631172 4.93537811 -9.41015625 4.15625 C-8.59478394 3.74600586 -7.77941162 3.33576172 -6.93933105 2.91308594 C-6.167948 2.52733398 -5.39656494 2.14158203 -4.60180664 1.74414062 C-3.92896133 1.40660767 -3.25611603 1.06907471 -2.56288147 0.72131348 C-1 0 -1 0 0 0 Z " fill="#375C2E" transform="translate(189,119)"/>
<path d="M0 0 C0 10.56 0 21.12 0 32 C-11.22148678 37.98479295 -22.50952708 43.81932433 -33.87451172 49.52587891 C-35.33499497 50.25954278 -36.7947927 50.99457285 -38.25390625 51.73095703 C-40.32476843 52.77531425 -42.39827318 53.81421991 -44.47265625 54.8515625 C-45.10208633 55.16985016 -45.73151642 55.48813782 -46.38002014 55.81607056 C-50.77087378 58 -50.77087378 58 -53 58 C-53 52.72 -53 47.44 -53 42 C-51.854104 41.50822266 -50.70820801 41.01644531 -49.52758789 40.50976562 C-45.26087604 38.65818279 -41.03656223 36.72312779 -36.81958008 34.76123047 C-34.99369865 33.92597824 -33.15727577 33.11336621 -31.31079102 32.32470703 C-21.1664826 28.55487485 -21.1664826 28.55487485 -14.18695068 21.04223633 C-13.54928243 17.43389592 -13.76544983 14.18618847 -14.18334961 10.5703125 C-14.12284424 9.39210937 -14.06233887 8.21390625 -14 7 C-10.4203872 3.86874686 -5.02448612 0 0 0 Z " fill="#365B2D" transform="translate(255,182)"/>
<path d="M0 0 C22.11940299 10.47761194 22.11940299 10.47761194 30.125 14.5 C30.98480469 14.92796875 31.84460938 15.3559375 32.73046875 15.796875 C38.87301587 18.87301587 38.87301587 18.87301587 40 20 C40.07319621 22.69654854 40.09242537 25.36691458 40.0625 28.0625 C40.05798828 28.82111328 40.05347656 29.57972656 40.04882812 30.36132812 C40.0370068 32.24091871 40.01907078 34.12046899 40 36 C36.9992992 34.58481442 33.99957233 33.16757567 31 31.75 C30.16082031 31.35425781 29.32164063 30.95851563 28.45703125 30.55078125 C27.62558594 30.15761719 26.79414062 29.76445313 25.9375 29.359375 C25.18339844 29.00327148 24.42929688 28.64716797 23.65234375 28.28027344 C20.08330082 26.55751376 16.54468259 24.77234129 13 23 C13 33.23 13 43.46 13 54 C7 52 7 52 0 48 C0 32.16 0 16.32 0 0 Z " fill="#4B7E3F" transform="translate(45,86)"/>
<path d="M0 0 C6.435 2.97 6.435 2.97 13 6 C13 21.84 13 37.68 13 54 C9.00384377 52.66794792 5.7146152 51.47883108 2.0390625 49.6171875 C1.24193848 49.21612793 0.44481445 48.81506836 -0.37646484 48.40185547 C-1.86073975 47.64606201 -1.86073975 47.64606201 -3.375 46.875 C-6.55125 45.26625 -9.7275 43.6575 -13 42 C-13 31.44 -13 20.88 -13 10 C-7 12 -7 12 -1 15 C-0.67 10.05 -0.34 5.1 0 0 Z " fill="#4B7E3F" transform="translate(137,212)"/>
<path d="M0 0 C0.33 10.23 0.66 20.46 1 31 C8.85448837 27.05295723 8.85448837 27.05295723 16.70678711 23.1015625 C17.6788208 22.61429688 18.65085449 22.12703125 19.65234375 21.625 C20.65257568 21.12226563 21.65280762 20.61953125 22.68334961 20.1015625 C25 19 25 19 26 19 C26 24.28 26 29.56 26 35 C16.35378557 40.12254625 6.69069562 45.20848733 -3.0625 50.125 C-4.21274658 50.70979126 -4.21274658 50.70979126 -5.38623047 51.30639648 C-10.76366257 54 -10.76366257 54 -13 54 C-13 38.16 -13 22.32 -13 6 C-1 0 -1 0 0 0 Z " fill="#375C2E" transform="translate(163,212)"/>
<path d="M0 0 C0 10.56 0 21.12 0 32 C-2.990625 33.588125 -5.98125 35.17625 -9.0625 36.8125 C-9.99070557 37.3072583 -10.91891113 37.8020166 -11.87524414 38.31176758 C-12.62926514 38.71032959 -13.38328613 39.1088916 -14.16015625 39.51953125 C-15.29916382 40.12438354 -15.29916382 40.12438354 -16.46118164 40.74145508 C-19.58097524 42.28800148 -22.79945863 43.62833941 -26 45 C-26 34.44 -26 23.88 -26 13 C-22.98875 11.411875 -19.9775 9.82375 -16.875 8.1875 C-15.93769043 7.6927417 -15.00038086 7.1979834 -14.03466797 6.68823242 C-1.33959976 0 -1.33959976 0 0 0 Z " fill="#0A1308" transform="translate(189,151)"/>
<path d="M0 0 C0 10.56 0 21.12 0 32 C-2.990625 33.588125 -5.98125 35.17625 -9.0625 36.8125 C-9.99070557 37.3072583 -10.91891113 37.8020166 -11.87524414 38.31176758 C-12.62926514 38.71032959 -13.38328613 39.1088916 -14.16015625 39.51953125 C-15.29916382 40.12438354 -15.29916382 40.12438354 -16.46118164 40.74145508 C-19.58097524 42.28800148 -22.79945863 43.62833941 -26 45 C-26 34.44 -26 23.88 -26 13 C-22.98875 11.411875 -19.9775 9.82375 -16.875 8.1875 C-15.93769043 7.6927417 -15.00038086 7.1979834 -14.03466797 6.68823242 C-1.33959976 0 -1.33959976 0 0 0 Z " fill="#0A1308" transform="translate(241,125)"/>
<path d="M0 0 C6.435 2.97 6.435 2.97 13 6 C13 11.61 13 17.22 13 23 C14.98 23.66 16.96 24.32 19 25 C21.71915488 26.2459004 24.34165149 27.62499215 27 29 C27 34.28 27 39.56 27 45 C23.02856751 43.67618917 19.7346291 42.49194782 16.07421875 40.65234375 C15.19572266 40.21212891 14.31722656 39.77191406 13.41210938 39.31835938 C12.51298828 38.86267578 11.61386719 38.40699219 10.6875 37.9375 C9.30981445 37.24817383 9.30981445 37.24817383 7.90429688 36.54492188 C1.14055525 33.14055525 1.14055525 33.14055525 0 32 C-0.0883967 29.6243148 -0.11530305 27.27791326 -0.09765625 24.90234375 C-0.0962413 24.19348526 -0.09482635 23.48462677 -0.09336853 22.75428772 C-0.08775443 20.48198288 -0.07519963 18.20977525 -0.0625 15.9375 C-0.05748681 14.40039204 -0.05292359 12.86328255 -0.04882812 11.32617188 C-0.0386297 7.55071333 -0.01905732 3.77546596 0 0 Z " fill="#4B7E3F" transform="translate(45,182)"/>
<path d="M0 0 C0.97646484 0.49306641 1.95292969 0.98613281 2.95898438 1.49414062 C3.96638672 2.01041016 4.97378906 2.52667969 6.01171875 3.05859375 C7.03845703 3.57873047 8.06519531 4.09886719 9.12304688 4.63476562 C11.65123335 5.91649737 14.17644275 7.20375436 16.69921875 8.49609375 C16.69921875 9.15609375 16.69921875 9.81609375 16.69921875 10.49609375 C12.81497343 12.53979887 8.91520585 14.55191888 5.01171875 16.55859375 C3.90892578 17.13931641 2.80613281 17.72003906 1.66992188 18.31835938 C0.60322266 18.86298828 -0.46347656 19.40761719 -1.5625 19.96875 C-2.54178467 20.47672119 -3.52106934 20.98469238 -4.5300293 21.50805664 C-8.64404876 22.97509662 -11.09877888 22.03129189 -14.9765625 20.3046875 C-15.84667969 19.85222656 -16.71679688 19.39976563 -17.61328125 18.93359375 C-18.49628906 18.47855469 -19.37929687 18.02351563 -20.2890625 17.5546875 C-20.95292969 17.20535156 -21.61679688 16.85601562 -22.30078125 16.49609375 C-14.53607537 10.49609375 -14.53607537 10.49609375 -10.30078125 10.49609375 C-10.30078125 9.83609375 -10.30078125 9.17609375 -10.30078125 8.49609375 C-11.16703125 8.22796875 -12.03328125 7.95984375 -12.92578125 7.68359375 C-16.21870089 6.52497388 -19.21206 5.11399536 -22.30078125 3.49609375 C-19.81981142 1.4286189 -17.19182249 -0.2139821 -14.36328125 -1.75390625 C-13.71488281 -2.1096875 -13.06648437 -2.46546875 -12.3984375 -2.83203125 C-7.94048866 -4.25990313 -3.96138908 -2.01544357 0 0 Z " fill="#73C361" transform="translate(237.30078125,76.50390625)"/>
<path d="M0 0 C1.45986328 0.73959961 1.45986328 0.73959961 2.94921875 1.49414062 C3.94824219 2.01041016 4.94726562 2.52667969 5.9765625 3.05859375 C6.99878906 3.57873047 8.02101562 4.09886719 9.07421875 4.63476562 C11.58711446 5.91469849 14.09595642 7.20196506 16.6015625 8.49609375 C13.33956661 11.85063261 10.0200694 13.90779681 5.6015625 15.49609375 C1.58184874 15.49609375 -0.97137234 14.21035529 -4.3984375 12.30859375 C-7.40026287 10.73349146 -8.04536934 10.43254148 -11.5234375 11.05859375 C-13.50740099 12.05057549 -15.46516215 13.09612637 -17.3984375 14.18359375 C-21.13997783 15.82051764 -22.51247572 15.71521901 -26.3984375 14.49609375 C-29.4768821 12.95434399 -32.44960922 11.27194367 -35.3984375 9.49609375 C-31.07629478 6.11269139 -26.39697334 3.73560556 -21.5234375 1.24609375 C-20.63785156 0.77429687 -19.75226563 0.3025 -18.83984375 -0.18359375 C-17.97488281 -0.62445313 -17.10992187 -1.0653125 -16.21875 -1.51953125 C-15.04723389 -2.12716309 -15.04723389 -2.12716309 -13.85205078 -2.74707031 C-8.77472662 -4.3132101 -4.52957763 -2.31807796 0 0 Z " fill="#72C160" transform="translate(159.3984375,37.50390625)"/>
<path d="M0 0 C0.99 0.556875 1.98 1.11375 3 1.6875 C6.70061379 3.30651853 8.15345111 3.15396467 12 2 C14.03105575 0.97045103 16.01393479 -0.09619854 17.97265625 -1.2578125 C20.71535856 -2.26188463 22.22464897 -1.84448755 25 -1 C27.45703125 0.19140625 27.45703125 0.19140625 29.8125 1.5625 C30.60269531 2.01753906 31.39289063 2.47257812 32.20703125 2.94140625 C32.79871094 3.29074219 33.39039063 3.64007813 34 4 C26.23529412 10 26.23529412 10 22 10 C22 10.66 22 11.32 22 12 C22.86625 12.268125 23.7325 12.53625 24.625 12.8125 C27.91791964 13.97111987 30.91127875 15.38209839 34 17 C30.40714964 19.99404196 26.45064059 22.51933941 22 24 C19 23.5 19 23.5 16 22 C15.29101562 21.65710938 14.58203125 21.31421875 13.8515625 20.9609375 C11.88510268 20.0018571 9.93874423 19.01365815 8 18 C11.40219265 15.25207517 15.48464588 12 20 12 C20 11.34 20 10.68 20 10 C19.0925 9.71125 18.185 9.4225 17.25 9.125 C14 8 14 8 12 6.8125 C8.9731737 5.58285182 7.1385646 6.15500184 4 7 C2.6572419 7.71166179 1.32425575 8.44197434 0 9.1875 C-2.92157353 10.70915288 -3.63325339 11.06112443 -7 10.5 C-7.99 10.005 -8.98 9.51 -10 9 C-10.70898438 8.65710937 -11.41796875 8.31421875 -12.1484375 7.9609375 C-14.11489732 7.0018571 -16.06125577 6.01365815 -18 5 C-12.37070605 0.3089217 -7.09223466 -3.54611733 0 0 Z " fill="#62A653" transform="translate(155,49)"/>
<path d="M0 0 C3.02253144 1.41313158 6.04301904 2.83037667 9.0625 4.25 C9.91005859 4.64574219 10.75761719 5.04148438 11.63085938 5.44921875 C16.55715708 7.76971419 21.31287621 10.22715608 26 13 C26 18.28 26 23.56 26 29 C22.97746856 27.58686842 19.95698096 26.16962333 16.9375 24.75 C16.08994141 24.35425781 15.24238281 23.95851562 14.36914062 23.55078125 C9.44284292 21.23028581 4.68712379 18.77284392 0 16 C0 10.72 0 5.44 0 0 Z " fill="#4B7E3F" transform="translate(85,218)"/>
<path d="M0 0 C3.0546875 1.98828125 3.0546875 1.98828125 5.125 3.6875 C5.125 4.3475 5.125 5.0075 5.125 5.6875 C1.26667671 7.76189619 -2.61376774 9.79094204 -6.5 11.8125 C-7.59441406 12.40160156 -8.68882813 12.99070312 -9.81640625 13.59765625 C-11.41162109 14.41943359 -11.41162109 14.41943359 -13.0390625 15.2578125 C-14.01311035 15.77102051 -14.9871582 16.28422852 -15.99072266 16.81298828 C-20.92947036 18.31041458 -24.87205375 15.82695496 -29.25 13.5625 C-29.93835938 13.20929688 -30.62671875 12.85609375 -31.3359375 12.4921875 C-31.84382813 12.22664063 -32.35171875 11.96109375 -32.875 11.6875 C-25.40571032 3.54727089 -10.60110833 -5.08947015 0 0 Z " fill="#73C361" transform="translate(117.875,55.3125)"/>
<path d="M0 0 C0 5.28 0 10.56 0 16 C-10.75 22 -10.75 22 -13 22 C-13 16.72 -13 11.44 -13 6 C-1.125 0 -1.125 0 0 0 Z " fill="#050505" transform="translate(215,186)"/>
<path d="M0 0 C0 5.28 0 10.56 0 16 C-10.75 22 -10.75 22 -13 22 C-13 16.72 -13 11.44 -13 6 C-1.125 0 -1.125 0 0 0 Z " fill="#050505" transform="translate(189,167)"/>
<path d="M0 0 C0 5.28 0 10.56 0 16 C-6.435 18.97 -6.435 18.97 -13 22 C-13 16.72 -13 11.44 -13 6 C-2.25 0 -2.25 0 0 0 Z " fill="#050505" transform="translate(228,148)"/>
<path d="M0 0 C3.06989521 1.55778154 6.05127521 3.22421241 9 5 C0.76118078 11.30784597 0.76118078 11.30784597 -4 12 C-8.35288633 10.55252159 -12.12689056 8.4378963 -16 6 C-16 5.34 -16 4.68 -16 4 C-5.38539509 -2.06249174 -5.38539509 -2.06249174 0 0 Z " fill="#73C361" transform="translate(193,107)"/>
<path d="M0 0 C0.79921875 0.50273438 1.5984375 1.00546875 2.421875 1.5234375 C-0.74356745 4.93388323 -4.2088654 6.95284323 -8.578125 8.5234375 C-13.81233915 8.5234375 -18.07459492 5.98094757 -22.578125 3.5234375 C-22.578125 2.8634375 -22.578125 2.2034375 -22.578125 1.5234375 C-13.90365389 -4.57213679 -9.3361578 -5.19405962 0 0 Z " fill="#71BF5F" transform="translate(199.578125,57.4765625)"/>
<path d="M0 0 C2.72103626 1.24134866 5.37480151 2.56746783 8 4 C8 4.66 8 5.32 8 6 C-0.7091222 10.97418244 -0.7091222 10.97418244 -5.125 11.0625 C-8.91319079 9.66251645 -12.45732512 7.93318553 -16 6 C-16 5.34 -16 4.68 -16 4 C-5.46218487 -2.01863354 -5.46218487 -2.01863354 0 0 Z " fill="#63A754" transform="translate(219,81)"/>
</svg>
